<svg width="142" height="59" viewBox="0 0 142 59" fill="none" xmlns="http://www.w3.org/2000/svg">
<g id="__x0023_Layer_x0020_1">
<path id="Vector" d="M85.625 13.0691L129.495 1L141.25 46.0432L97.3798 58.1123L85.625 13.0691Z" fill="#FEFEFE" stroke="#FEFEFE" stroke-width="0.288"/>
<path id="Vector_2" d="M127.524 4.50586L89.0386 15.0927L99.3507 54.6073L137.836 44.0195L127.524 4.50586Z" fill="#2B2A29"/>
<path id="Vector_3" d="M110.607 36.6717L105.048 38.201L105.1 41.5418L100.115 42.9137L101.1 22.3159L106.42 20.8519L117.308 38.1828L112.201 39.5882L110.607 36.6708V36.6717ZM108.515 32.8509L104.989 26.514L105.033 33.809L108.515 32.8509ZM124.773 32.3297L116.779 34.529L115.649 30.1975L120.664 16.5885L124.488 15.5364L127.529 27.1889L129.511 26.6436L130.578 30.7322L128.596 31.2775L129.521 34.8228L125.697 35.8749L124.772 32.3297H124.773ZM123.706 28.241L122.15 22.2804L119.481 29.4036L123.706 28.241Z" fill="#FFED00" stroke="#FEFEFE" stroke-width="0.288"/>
<path id="Vector_4" d="M14.335 16.1805C19.8403 16.7738 22.591 19.312 22.591 23.7952C22.591 28.3734 19.8403 30.9203 14.335 31.4358V33.3635H9.24296V31.384C3.74609 30.903 1 28.3734 1 23.7952C1 19.3034 3.74609 16.7651 9.24296 16.1805V14.7597H14.335V16.1805ZM14.335 27.5373C15.2167 27.2771 15.9002 26.8096 16.3854 26.1386C16.8707 25.4627 17.1157 24.6573 17.1157 23.7174C17.1157 22.8208 16.867 22.0154 16.3686 21.3002C15.8712 20.5859 15.1914 20.0877 14.335 19.7968V27.5373ZM9.24296 27.5891V19.9005C8.41175 20.1434 7.73668 20.6282 7.22617 21.352C6.71566 22.0758 6.46227 22.8986 6.46227 23.8211C6.46227 24.6832 6.71566 25.4589 7.22149 26.1424C7.72732 26.8269 8.4024 27.3117 9.24203 27.5891H9.24296ZM24.6162 24.0717C24.6162 21.0352 25.4428 18.6707 27.0884 16.9811C28.7377 15.2877 31.0331 14.4429 33.9737 14.4429C36.99 14.4429 39.3144 15.2742 40.9469 16.9379C42.5757 18.5968 43.3938 20.9277 43.3938 23.92C43.3938 26.0944 43.0348 27.879 42.3223 29.2691C41.6089 30.6592 40.5795 31.7421 39.234 32.5178C37.8839 33.2934 36.2093 33.6784 34.1972 33.6784C32.1551 33.6784 30.4637 33.3453 29.122 32.6781C27.7849 32.007 26.7003 30.9501 25.8654 29.5034C25.0342 28.0566 24.6162 26.2461 24.6162 24.0717ZM30.2188 24.0976C30.2188 25.9773 30.5563 27.3242 31.2351 28.1478C31.9139 28.9667 32.8424 29.3776 34.0111 29.3776C35.2135 29.3776 36.1457 28.9744 36.804 28.1738C37.4622 27.3683 37.7951 25.9254 37.7951 23.847C37.7951 22.0931 37.4491 20.8154 36.7619 20.0051C36.0747 19.1997 35.1415 18.7965 33.9606 18.7965C32.8339 18.7965 31.927 19.2035 31.2435 20.0262C30.56 20.8451 30.2188 22.2054 30.2188 24.0976ZM45.1357 14.7587H62.1537V19.3542H56.4418V33.3626H50.8439V19.3542H45.1357V14.7587ZM63.9807 24.0717C63.9807 21.0352 64.8072 18.6707 66.4528 16.9811C68.1021 15.2877 70.3976 14.4429 73.3382 14.4429C76.3545 14.4429 78.6789 15.2742 80.3114 16.9379C81.9401 18.5968 82.7583 20.9277 82.7583 23.92C82.7583 26.0944 82.3992 27.879 81.6868 29.2691C80.9734 30.6592 79.9439 31.7421 78.5985 32.5178C77.2483 33.2934 75.5737 33.6784 73.5616 33.6784C71.5196 33.6784 69.8282 33.3453 68.4864 32.6781C67.1494 32.007 66.0648 30.9501 65.2298 29.5034C64.3986 28.0566 63.9807 26.2461 63.9807 24.0717ZM69.5832 24.0976C69.5832 25.9773 69.9207 27.3242 70.5995 28.1478C71.2783 28.9667 72.2068 29.3776 73.3755 29.3776C74.578 29.3776 75.5102 28.9744 76.1684 28.1738C76.8266 27.3683 77.1595 25.9254 77.1595 23.847C77.1595 22.0931 76.8135 20.8154 76.1263 20.0051C75.4391 19.1997 74.506 18.7965 73.3251 18.7965C72.1984 18.7965 71.2914 19.2035 70.6079 20.0262C69.9245 20.8451 69.5832 22.2054 69.5832 24.0976Z" fill="#2B2A29" stroke="#FEFEFE" stroke-width="0.288"/>
<path id="Vector_5" d="M11.586 46.8054L15.6411 48.0659C15.369 49.2333 14.9408 50.2067 14.3545 50.9901C13.7692 51.7744 13.0399 52.3648 12.1722 52.7622C11.3036 53.1635 10.1984 53.3603 8.86045 53.3603C7.23262 53.3603 5.90024 53.1165 4.87174 52.6336C3.8395 52.1469 2.94751 51.2915 2.19764 50.0665C1.45151 48.8425 1.07471 47.2777 1.07471 45.3702C1.07471 42.8253 1.73388 40.8669 3.0513 39.5027C4.36871 38.1357 6.23404 37.4512 8.64353 37.4512C10.5294 37.4512 12.0114 37.8409 13.0923 38.6253C14.1731 39.4096 14.9744 40.6125 15.498 42.2339L11.4121 43.168C11.269 42.6995 11.1194 42.3558 10.9623 42.1369C10.7043 41.775 10.3873 41.4957 10.0142 41.2989C9.63744 41.1021 9.21949 41.0051 8.75573 41.0051C7.70947 41.0051 6.90443 41.4381 6.34624 42.3049C5.92455 42.9491 5.71137 43.959 5.71137 45.3366C5.71137 47.0445 5.96569 48.2109 6.46779 48.8445C6.97362 49.4781 7.68142 49.7929 8.59117 49.7929C9.47662 49.7929 10.1461 49.5385 10.5996 49.0269C11.053 48.519 11.3803 47.7779 11.586 46.8035V46.8054ZM27.1004 50.5494H21.8289L21.1033 53.0877H16.376L22.0028 37.7133H27.0481L32.6786 53.0877H27.8363L27.1004 50.5494ZM26.1308 47.224L24.475 41.6973L22.8294 47.224H26.1308ZM47.9173 53.0877H43.2909V41.4899H39.6715V46.2189C39.6715 48.1629 39.5743 49.5913 39.3714 50.5033C39.1694 51.4163 38.7019 52.0854 37.9633 52.5117C37.2237 52.9379 36.0316 53.1529 34.3822 53.1529C33.8764 53.1529 33.2976 53.0953 32.6459 52.9849V49.8707H33.3397C33.9671 49.8707 34.4103 49.7277 34.6683 49.4445C34.9264 49.1613 35.0554 48.6429 35.0554 47.8873V37.7142H47.9173V53.0886V53.0877ZM50.396 45.4096C50.396 42.9001 51.0794 40.9456 52.4389 39.5497C53.8022 38.1501 55.6983 37.4521 58.1284 37.4521C60.6211 37.4521 62.5425 38.1395 63.8917 39.5142C65.2372 40.8851 65.9141 42.8109 65.9141 45.2848C65.9141 47.0819 65.6178 48.5565 65.0287 49.7056C64.4397 50.8547 63.5888 51.7494 62.4771 52.3907C61.3616 53.031 59.9769 53.3497 58.3145 53.3497C56.6268 53.3497 55.229 53.0742 54.1201 52.5232C53.0149 51.9683 52.1192 51.0947 51.4282 49.8995C50.741 48.7043 50.396 47.2077 50.396 45.4105V45.4096ZM55.0261 45.4307C55.0261 46.984 55.3047 48.0976 55.8666 48.7773C56.4276 49.4541 57.1953 49.7939 58.1611 49.7939C59.155 49.7939 59.9255 49.4608 60.4687 48.7984C61.0129 48.1321 61.2878 46.9408 61.2878 45.2224C61.2878 43.7728 61.0017 42.7168 60.4332 42.0467C59.8647 41.3814 59.0943 41.0483 58.1181 41.0483C57.1869 41.0483 56.4379 41.3853 55.8732 42.0649C55.3084 42.7417 55.0261 43.8659 55.0261 45.4297V45.4307ZM68.4246 37.7133H73.051V43.0931H78.1103V37.7133H82.7582V53.0877H78.1103V46.8697H73.051V53.0877H68.4246V37.7133Z" fill="#2B2A29" stroke="#FEFEFE" stroke-width="0.288"/>
</g>
</svg>
